<svg width="130" height="102" viewBox="0 0 130 102" fill="none" xmlns="http://www.w3.org/2000/svg">
<path fill-rule="evenodd" clip-rule="evenodd" d="M129.166 91.512C129.166 85.76 124.503 81.096 118.75 81.096C94.527 81.096 34.639 81.096 10.416 81.096C4.663 81.096 0 85.76 0 91.512C0 97.265 4.663 101.929 10.416 101.929C34.639 101.929 94.527 101.929 118.75 101.929C124.503 101.929 129.166 97.265 129.166 91.513C129.166 91.513 129.166 91.513 129.166 91.512ZM129.166 50.965C129.166 45.212 124.503 40.548 118.75 40.548C94.527 40.548 34.639 40.548 10.416 40.548C4.663 40.548 0 45.212 0 50.965C0 56.718 4.663 61.381 10.416 61.381C34.639 61.381 94.527 61.381 118.75 61.381C124.503 61.381 129.166 56.718 129.166 50.965ZM129.166 10.417C129.166 4.664 124.503 0 118.75 0C94.527 0 34.639 0 10.416 0C4.663 0 0 4.664 0 10.417C0 16.17 4.663 20.833 10.416 20.833C34.639 20.833 94.527 20.833 118.75 20.833C124.503 20.833 129.166 16.17 129.166 10.417Z" fill="black"/>
</svg>
