<svg width="76" height="96" viewBox="0 0 76 96" fill="none" xmlns="http://www.w3.org/2000/svg">
<path d="M25.6012 82.5C22.4012 80.5 19.8012 77.7 18.1012 74.3L3.90119 46.6C2.80119 44.4 3.40119 41.8 5.40119 40.5C6.20119 40 7.10119 39.7 8.00119 39.7C8.50119 39.7 8.90119 39.8 9.40119 39.9C10.4012 40.2 11.3012 40.9 11.9012 41.7L18.5012 50.5C18.8012 50.9 19.2012 51.1 19.6012 51.1C20.3012 51.1 21.0012 50.6 21.0012 49.7V13.1C21.0012 11 22.4012 9.1 24.4012 8.7C24.7012 8.7 25.0012 8.6 25.3012 8.6C27.7012 8.6 29.6012 10.5 29.6012 12.9V42.2C29.6012 43.2 30.4012 44 31.4012 44C32.4012 44 33.2012 43.2 33.2012 42.2V8.1C33.2012 6 34.6012 4.1 36.6012 3.7C36.9012 3.6 37.2012 3.6 37.5012 3.6C39.8012 3.6 41.8012 5.5 41.8012 7.9V42.2C41.8012 43.2 42.6012 44 43.6012 44C44.6012 44 45.4012 43.2 45.4012 42.2V13.1C45.4012 11 46.8012 9.1 48.8012 8.7C49.1012 8.7 49.4012 8.6 49.7012 8.6C52.1012 8.6 54.0012 10.5 54.0012 12.9V43.8C54.0012 44.8 54.8012 45.6 55.8012 45.6C56.8012 45.6 57.6012 44.8 57.6012 43.8V20.1C57.6012 17.8 59.3012 15.8 61.4012 15.6C61.5012 15.6 61.7012 15.6 61.8012 15.6C64.1012 15.6 66.1012 17.5 66.1012 19.9V58L69.7012 62V19.8C69.7012 15.5 66.2012 11.9 61.8012 11.9C61.5012 11.9 61.3012 11.9 61.0012 11.9C59.7012 12 58.6012 12.5 57.5012 13.2V12.9C57.5012 8.6 54.0012 5 49.6012 5C49.1012 5 48.6012 5 48.1012 5.1C47.0012 5.3 46.1012 5.7 45.2012 6.3C44.5012 2.7 41.3012 0 37.5012 0C37.0012 0 36.5012 -9.68575e-08 36.0012 0.0999999C32.9012 0.7 30.5012 3.2 29.8012 6.3C28.5012 5.4 27.0012 4.9 25.4012 4.9C24.9012 4.9 24.4012 4.9 23.9012 5C20.2012 5.7 17.6012 9 17.6012 12.9V42.8L15.0012 39.3C13.8012 37.7 12.3012 36.7 10.6012 36.2C9.80119 36 9.00119 35.9 8.20119 35.9C6.50119 35.9 4.90119 36.4 3.60119 37.3C0.201189 39.6 -0.998811 44.2 0.901189 48L15.0012 75.8C17.0012 79.8 20.1012 83.1 23.9012 85.4C27.7012 87.7 32.0012 88.9 36.5012 88.9H45.7012V85.3H36.5012C32.5012 85.5 28.8012 84.5 25.6012 82.5Z" fill="black"/>
<path d="M74.9013 73.3L59.0013 55.6C58.3013 54.8 57.0013 54.8 56.3013 55.6L40.3013 73.3C39.8013 73.8 39.7013 74.6 40.0013 75.2C40.3013 75.8 40.9013 76.3 41.6013 76.3H49.0013V93.3C49.0013 94.3 49.8013 95.1 50.8013 95.1H64.3013C65.3013 95.1 66.1013 94.3 66.1013 93.3V76.3H73.6013C74.3013 76.3 75.0013 75.9 75.2013 75.2C75.5013 74.6 75.4013 73.8 74.9013 73.3ZM64.4013 72.7C63.4013 72.7 62.6013 73.5 62.6013 74.5V91.5H52.7013V74.5C52.7013 73.5 51.9013 72.7 50.9013 72.7H45.7013L57.6013 59.5L69.5013 72.7H64.4013Z" fill="black"/>
</svg>
